<mxfile host="app.diagrams.net" agent="Mozilla/5.0 (Windows NT 10.0; Win64; x64) AppleWebKit/537.36 (KHTML, like Gecko) Chrome/136.0.0.0 Safari/537.36 Edg/136.0.0.0" version="27.1.0">
  <diagram name="Page-1" id="dFHp_fmjLcUPuLPeldF0">
    <mxGraphModel dx="1034" dy="570" grid="1" gridSize="10" guides="1" tooltips="1" connect="0" arrows="1" fold="1" page="1" pageScale="1" pageWidth="850" pageHeight="1100" math="0" shadow="0">
      <root>
        <mxCell id="0" />
        <mxCell id="1" parent="0" />
        <mxCell id="Cmd_5nBllCwOCh9Z08_K-29" value="" style="endArrow=classic;html=1;rounded=0;exitX=0.075;exitY=0.008;exitDx=0;exitDy=0;exitPerimeter=0;" edge="1" parent="1" source="Cmd_5nBllCwOCh9Z08_K-27" target="Cmd_5nBllCwOCh9Z08_K-12">
          <mxGeometry width="50" height="50" relative="1" as="geometry">
            <mxPoint x="400" y="420" as="sourcePoint" />
            <mxPoint x="450" y="370" as="targetPoint" />
          </mxGeometry>
        </mxCell>
        <mxCell id="Cmd_5nBllCwOCh9Z08_K-28" value="" style="endArrow=classic;html=1;rounded=0;entryX=0.524;entryY=0.374;entryDx=0;entryDy=0;entryPerimeter=0;" edge="1" parent="1" source="Cmd_5nBllCwOCh9Z08_K-12" target="Cmd_5nBllCwOCh9Z08_K-6">
          <mxGeometry width="50" height="50" relative="1" as="geometry">
            <mxPoint x="400" y="320" as="sourcePoint" />
            <mxPoint x="450" y="270" as="targetPoint" />
          </mxGeometry>
        </mxCell>
        <mxCell id="Cmd_5nBllCwOCh9Z08_K-27" value="" style="rounded=0;whiteSpace=wrap;html=1;" vertex="1" parent="1">
          <mxGeometry x="10" y="500" width="780" height="160" as="geometry" />
        </mxCell>
        <mxCell id="Cmd_5nBllCwOCh9Z08_K-26" value="" style="endArrow=classic;html=1;rounded=0;entryX=0.847;entryY=0.741;entryDx=0;entryDy=0;entryPerimeter=0;exitX=0.784;exitY=0.72;exitDx=0;exitDy=0;exitPerimeter=0;" edge="1" parent="1" source="Cmd_5nBllCwOCh9Z08_K-10" target="Cmd_5nBllCwOCh9Z08_K-6">
          <mxGeometry width="50" height="50" relative="1" as="geometry">
            <mxPoint x="400" y="510" as="sourcePoint" />
            <mxPoint x="450" y="460" as="targetPoint" />
          </mxGeometry>
        </mxCell>
        <mxCell id="Cmd_5nBllCwOCh9Z08_K-23" value="" style="endArrow=classic;html=1;rounded=0;exitX=0.524;exitY=0.442;exitDx=0;exitDy=0;exitPerimeter=0;entryX=0.521;entryY=0.486;entryDx=0;entryDy=0;entryPerimeter=0;" edge="1" parent="1" source="Cmd_5nBllCwOCh9Z08_K-6" target="Cmd_5nBllCwOCh9Z08_K-4">
          <mxGeometry width="50" height="50" relative="1" as="geometry">
            <mxPoint x="400" y="310" as="sourcePoint" />
            <mxPoint x="450" y="260" as="targetPoint" />
          </mxGeometry>
        </mxCell>
        <mxCell id="Cmd_5nBllCwOCh9Z08_K-21" value="" style="endArrow=classic;html=1;rounded=0;exitX=0.861;exitY=0.728;exitDx=0;exitDy=0;exitPerimeter=0;" edge="1" parent="1" source="Cmd_5nBllCwOCh9Z08_K-5" target="Cmd_5nBllCwOCh9Z08_K-4">
          <mxGeometry width="50" height="50" relative="1" as="geometry">
            <mxPoint x="400" y="310" as="sourcePoint" />
            <mxPoint x="450" y="260" as="targetPoint" />
          </mxGeometry>
        </mxCell>
        <mxCell id="Cmd_5nBllCwOCh9Z08_K-20" value="" style="endArrow=classic;html=1;rounded=0;" edge="1" parent="1" source="Cmd_5nBllCwOCh9Z08_K-4">
          <mxGeometry width="50" height="50" relative="1" as="geometry">
            <mxPoint x="400" y="310" as="sourcePoint" />
            <mxPoint x="530" y="81" as="targetPoint" />
          </mxGeometry>
        </mxCell>
        <mxCell id="Cmd_5nBllCwOCh9Z08_K-1" value="users" style="sketch=0;outlineConnect=0;gradientColor=none;fontColor=#545B64;strokeColor=none;fillColor=#879196;dashed=0;verticalLabelPosition=bottom;verticalAlign=top;align=center;html=1;fontSize=12;fontStyle=0;aspect=fixed;shape=mxgraph.aws4.illustration_users;pointerEvents=1" vertex="1" parent="1">
          <mxGeometry x="720" y="31" width="100" height="100" as="geometry" />
        </mxCell>
        <mxCell id="Cmd_5nBllCwOCh9Z08_K-3" value="" style="image;aspect=fixed;perimeter=ellipsePerimeter;html=1;align=center;shadow=0;dashed=0;spacingTop=3;image=img/lib/active_directory/internet_cloud.svg;" vertex="1" parent="1">
          <mxGeometry x="520" y="48.8" width="90" height="56.7" as="geometry" />
        </mxCell>
        <mxCell id="Cmd_5nBllCwOCh9Z08_K-4" value="" style="outlineConnect=0;dashed=0;verticalLabelPosition=bottom;verticalAlign=top;align=center;html=1;shape=mxgraph.aws3.internet_gateway;fillColor=#F58536;gradientColor=none;" vertex="1" parent="1">
          <mxGeometry x="330" y="45" width="69" height="72" as="geometry" />
        </mxCell>
        <mxCell id="Cmd_5nBllCwOCh9Z08_K-5" value="" style="points=[];aspect=fixed;html=1;align=center;shadow=0;dashed=0;fillColor=#FF6A00;strokeColor=none;shape=mxgraph.alibaba_cloud.nat_gateway;" vertex="1" parent="1">
          <mxGeometry x="129.02" y="48.8" width="50.98" height="41.2" as="geometry" />
        </mxCell>
        <mxCell id="Cmd_5nBllCwOCh9Z08_K-11" value="" style="sketch=0;points=[[0,0,0],[0.25,0,0],[0.5,0,0],[0.75,0,0],[1,0,0],[0,1,0],[0.25,1,0],[0.5,1,0],[0.75,1,0],[1,1,0],[0,0.25,0],[0,0.5,0],[0,0.75,0],[1,0.25,0],[1,0.5,0],[1,0.75,0]];outlineConnect=0;fontColor=#232F3E;fillColor=#C925D1;strokeColor=#ffffff;dashed=0;verticalLabelPosition=bottom;verticalAlign=top;align=center;html=1;fontSize=12;fontStyle=0;aspect=fixed;shape=mxgraph.aws4.resourceIcon;resIcon=mxgraph.aws4.dynamodb;" vertex="1" parent="1">
          <mxGeometry x="290" y="770" width="150" height="150" as="geometry" />
        </mxCell>
        <mxCell id="Cmd_5nBllCwOCh9Z08_K-12" value="" style="sketch=0;outlineConnect=0;fontColor=#232F3E;gradientColor=none;fillColor=#ED7100;strokeColor=none;dashed=0;verticalLabelPosition=bottom;verticalAlign=top;align=center;html=1;fontSize=12;fontStyle=0;aspect=fixed;pointerEvents=1;shape=mxgraph.aws4.auto_scaling2;" vertex="1" parent="1">
          <mxGeometry x="42.58" y="280" width="51.34" height="51.34" as="geometry" />
        </mxCell>
        <mxCell id="Cmd_5nBllCwOCh9Z08_K-19" value="" style="endArrow=classic;html=1;rounded=0;" edge="1" parent="1" source="Cmd_5nBllCwOCh9Z08_K-3">
          <mxGeometry width="50" height="50" relative="1" as="geometry">
            <mxPoint x="400" y="510" as="sourcePoint" />
            <mxPoint x="730" y="77" as="targetPoint" />
          </mxGeometry>
        </mxCell>
        <mxCell id="Cmd_5nBllCwOCh9Z08_K-24" value="" style="endArrow=classic;html=1;rounded=0;exitX=0.387;exitY=0.551;exitDx=0;exitDy=0;exitPerimeter=0;" edge="1" parent="1" source="Cmd_5nBllCwOCh9Z08_K-8">
          <mxGeometry width="50" height="50" relative="1" as="geometry">
            <mxPoint x="400" y="410" as="sourcePoint" />
            <mxPoint x="340" y="330" as="targetPoint" />
          </mxGeometry>
        </mxCell>
        <mxCell id="Cmd_5nBllCwOCh9Z08_K-8" value="" style="outlineConnect=0;dashed=0;verticalLabelPosition=bottom;verticalAlign=top;align=center;html=1;shape=mxgraph.aws3.ec2;fillColor=#F58534;gradientColor=none;" vertex="1" parent="1">
          <mxGeometry x="30.00000000000002" y="530" width="76.5" height="93" as="geometry" />
        </mxCell>
        <mxCell id="Cmd_5nBllCwOCh9Z08_K-6" value="" style="points=[];aspect=fixed;html=1;align=center;shadow=0;dashed=0;fillColor=#FF6A00;strokeColor=none;shape=mxgraph.alibaba_cloud.alb_application_load_balancer_01;" vertex="1" parent="1">
          <mxGeometry x="329.6" y="280" width="69.4" height="58.86" as="geometry" />
        </mxCell>
        <mxCell id="Cmd_5nBllCwOCh9Z08_K-9" value="" style="outlineConnect=0;dashed=0;verticalLabelPosition=bottom;verticalAlign=top;align=center;html=1;shape=mxgraph.aws3.ec2;fillColor=#F58534;gradientColor=none;" vertex="1" parent="1">
          <mxGeometry x="330" y="533.5" width="76.5" height="93" as="geometry" />
        </mxCell>
        <mxCell id="Cmd_5nBllCwOCh9Z08_K-25" value="" style="endArrow=classic;html=1;rounded=0;entryX=0.49;entryY=0.768;entryDx=0;entryDy=0;entryPerimeter=0;" edge="1" parent="1" source="Cmd_5nBllCwOCh9Z08_K-9" target="Cmd_5nBllCwOCh9Z08_K-6">
          <mxGeometry width="50" height="50" relative="1" as="geometry">
            <mxPoint x="400" y="510" as="sourcePoint" />
            <mxPoint x="450" y="460" as="targetPoint" />
          </mxGeometry>
        </mxCell>
        <mxCell id="Cmd_5nBllCwOCh9Z08_K-10" value="" style="outlineConnect=0;dashed=0;verticalLabelPosition=bottom;verticalAlign=top;align=center;html=1;shape=mxgraph.aws3.ec2;fillColor=#F58534;gradientColor=none;" vertex="1" parent="1">
          <mxGeometry x="643.5" y="530" width="76.5" height="93" as="geometry" />
        </mxCell>
        <mxCell id="Cmd_5nBllCwOCh9Z08_K-32" value="" style="endArrow=classic;startArrow=classic;html=1;rounded=0;entryX=0.087;entryY=1.008;entryDx=0;entryDy=0;entryPerimeter=0;" edge="1" parent="1" target="Cmd_5nBllCwOCh9Z08_K-27">
          <mxGeometry width="50" height="50" relative="1" as="geometry">
            <mxPoint x="78" y="880" as="sourcePoint" />
            <mxPoint x="450" y="670" as="targetPoint" />
          </mxGeometry>
        </mxCell>
        <mxCell id="Cmd_5nBllCwOCh9Z08_K-33" value="&lt;b&gt;NAT&amp;nbsp;&lt;/b&gt;&lt;div&gt;&lt;b&gt;GATEWAY&lt;/b&gt;&lt;/div&gt;" style="text;html=1;align=center;verticalAlign=middle;resizable=0;points=[];autosize=1;strokeColor=none;fillColor=none;" vertex="1" parent="1">
          <mxGeometry x="70" y="77" width="80" height="40" as="geometry" />
        </mxCell>
        <mxCell id="Cmd_5nBllCwOCh9Z08_K-34" value="&lt;b&gt;INTERNET GATEWAY&lt;/b&gt;" style="text;html=1;align=center;verticalAlign=middle;resizable=0;points=[];autosize=1;strokeColor=none;fillColor=none;" vertex="1" parent="1">
          <mxGeometry x="289.3" y="130" width="150" height="30" as="geometry" />
        </mxCell>
        <mxCell id="Cmd_5nBllCwOCh9Z08_K-35" value="&lt;b&gt;CLOUD&lt;/b&gt;" style="text;html=1;align=center;verticalAlign=middle;resizable=0;points=[];autosize=1;strokeColor=none;fillColor=none;" vertex="1" parent="1">
          <mxGeometry x="530" y="100" width="70" height="30" as="geometry" />
        </mxCell>
        <mxCell id="Cmd_5nBllCwOCh9Z08_K-38" value="&lt;b&gt;APPLICATION LOAD BALANCER&lt;/b&gt;" style="text;html=1;align=center;verticalAlign=middle;resizable=0;points=[];autosize=1;strokeColor=none;fillColor=none;" vertex="1" parent="1">
          <mxGeometry x="380" y="294.43" width="210" height="30" as="geometry" />
        </mxCell>
        <mxCell id="Cmd_5nBllCwOCh9Z08_K-39" value="&lt;b&gt;AUTO SCALING&lt;/b&gt;" style="text;html=1;align=center;verticalAlign=middle;resizable=0;points=[];autosize=1;strokeColor=none;fillColor=none;" vertex="1" parent="1">
          <mxGeometry x="70" y="308.86" width="110" height="30" as="geometry" />
        </mxCell>
        <mxCell id="Cmd_5nBllCwOCh9Z08_K-40" value="&lt;b&gt;EC2 INSTANCE&lt;/b&gt;&lt;div&gt;&lt;b&gt;US EAST 1A&lt;/b&gt;&lt;/div&gt;" style="text;html=1;align=center;verticalAlign=middle;resizable=0;points=[];autosize=1;strokeColor=none;fillColor=none;" vertex="1" parent="1">
          <mxGeometry x="10" y="623" width="110" height="40" as="geometry" />
        </mxCell>
        <mxCell id="Cmd_5nBllCwOCh9Z08_K-41" value="&lt;b&gt;EC2 INSTANCE&lt;/b&gt;&lt;div&gt;&lt;b&gt;US EAST 1B&lt;/b&gt;&lt;/div&gt;" style="text;html=1;align=center;verticalAlign=middle;resizable=0;points=[];autosize=1;strokeColor=none;fillColor=none;" vertex="1" parent="1">
          <mxGeometry x="315" y="623" width="110" height="40" as="geometry" />
        </mxCell>
        <mxCell id="Cmd_5nBllCwOCh9Z08_K-42" value="&lt;b&gt;EC2 INSTANCE&lt;/b&gt;&lt;div&gt;&lt;b&gt;US EAST 1C&lt;/b&gt;&lt;/div&gt;" style="text;html=1;align=center;verticalAlign=middle;resizable=0;points=[];autosize=1;strokeColor=none;fillColor=none;" vertex="1" parent="1">
          <mxGeometry x="640" y="623" width="110" height="40" as="geometry" />
        </mxCell>
        <mxCell id="Cmd_5nBllCwOCh9Z08_K-43" value="&lt;b&gt;DYNAMODB&lt;/b&gt;" style="text;html=1;align=center;verticalAlign=middle;resizable=0;points=[];autosize=1;strokeColor=none;fillColor=none;" vertex="1" parent="1">
          <mxGeometry x="323.25" y="920" width="90" height="30" as="geometry" />
        </mxCell>
        <mxCell id="Cmd_5nBllCwOCh9Z08_K-44" value="" style="endArrow=classic;startArrow=classic;html=1;rounded=0;entryX=0.506;entryY=0.748;entryDx=0;entryDy=0;entryPerimeter=0;" edge="1" parent="1" target="Cmd_5nBllCwOCh9Z08_K-5">
          <mxGeometry width="50" height="50" relative="1" as="geometry">
            <mxPoint x="160" y="800" as="sourcePoint" />
            <mxPoint x="450" y="200" as="targetPoint" />
          </mxGeometry>
        </mxCell>
      </root>
    </mxGraphModel>
  </diagram>
</mxfile>
